<svg xmlns="http://www.w3.org/2000/svg" viewBox="0 0 192 192" width="192" height="192">
  <defs>
    <linearGradient id="bg" x1="0" y1="0" x2="1" y2="1">
      <stop offset="0%" stop-color="#1e1b4b"/>
      <stop offset="100%" stop-color="#0f172a"/>
    </linearGradient>
  </defs>
  <rect width="192" height="192" rx="40" fill="url(#bg)"/>
  <!-- Red quadrant -->
  <rect x="20" y="20" width="72" height="72" rx="12" fill="#ef4444" opacity="0.85"/>
  <circle cx="56" cy="56" r="8" fill="white" opacity="0.9"/>
  <!-- Green quadrant -->
  <rect x="100" y="20" width="72" height="72" rx="12" fill="#22c55e" opacity="0.85"/>
  <circle cx="120" cy="40" r="6" fill="white" opacity="0.9"/>
  <circle cx="152" cy="72" r="6" fill="white" opacity="0.9"/>
  <!-- Yellow quadrant -->
  <rect x="20" y="100" width="72" height="72" rx="12" fill="#eab308" opacity="0.85"/>
  <circle cx="40" cy="120" r="6" fill="white" opacity="0.9"/>
  <circle cx="72" cy="152" r="6" fill="white" opacity="0.9"/>
  <!-- Blue quadrant -->
  <rect x="100" y="100" width="72" height="72" rx="12" fill="#3b82f6" opacity="0.85"/>
  <circle cx="136" cy="136" r="8" fill="white" opacity="0.9"/>
  <!-- Center star -->
  <polygon points="96,70 102,88 120,88 106,99 111,117 96,107 81,117 86,99 72,88 90,88" fill="white" opacity="0.9"/>
</svg>
